<?xml version="1.0" encoding="utf-8"?>
<!-- Generator: Adobe Illustrator 19.0.0, SVG Export Plug-In . SVG Version: 6.00 Build 0)  -->
<svg version="1.1" id="Layer_1" xmlns="http://www.w3.org/2000/svg" xmlns:xlink="http://www.w3.org/1999/xlink" x="0px" y="0px"
	 viewBox="0 0 256 256" style="enable-background:new 0 0 256 256;" xml:space="preserve">
<style type="text/css">
	.st0{fill:none;stroke:#000000;stroke-width:2;stroke-miterlimit:10;}
	.st1{fill:none;stroke:#000000;stroke-miterlimit:10;}
	.st2{fill:#1A1A1A;}
	.st3{fill:#333333;}
</style>
<g id="XMLID_35_">
	<g id="XMLID_47_">
		<line id="XMLID_50_" class="st0" x1="72.3" y1="128" x2="32.7" y2="128"/>
		<g id="XMLID_48_">
			<polygon id="XMLID_49_" points="36.9,122.4 34.6,128 36.9,133.6 23.7,128 			"/>
		</g>
	</g>
</g>
<g id="XMLID_36_">
	<g id="XMLID_52_">
		<line id="XMLID_55_" class="st0" x1="183.7" y1="128" x2="223.3" y2="128"/>
		<g id="XMLID_53_">
			<polygon id="XMLID_54_" points="219.1,133.6 221.4,128 219.1,122.4 232.3,128 			"/>
		</g>
	</g>
</g>
<polygon id="XMLID_20_" class="st1" points="128.5,156.1 105.3,142.1 105.3,113.9 128.5,99.9 151.7,113.9 151.7,142.1 "/>
<path id="XMLID_18_" class="st1" d="M128.5,156.1"/>
<path id="XMLID_15_" class="st1" d="M149.3,121.8"/>
<path id="XMLID_19_" class="st1" d="M105.8,113.9"/>
<polyline id="XMLID_21_" class="st1" points="151.8,114.1 128.5,126.7 105.2,113.9 "/>
<path id="XMLID_22_" class="st1" d="M128.5,156.1"/>
<path id="XMLID_17_" class="st1" d="M128.5,99.9"/>
<line id="XMLID_16_" class="st1" x1="128.5" y1="156.1" x2="128.5" y2="126.7"/>
<g id="XMLID_24_">
	<g id="XMLID_27_">
		<path id="XMLID_30_" class="st2" d="M168.6,198v9.7c0,2.5-2.1,4.6-4.6,4.6H92.9c-2.5,0-4.6-2.1-4.6-4.6V198H168.6z"/>
		<path id="XMLID_29_" class="st3" d="M168.6,48.3V58H88.4v-9.7c0-2.5,2.1-4.6,4.6-4.6h71.1C166.6,43.7,168.6,45.7,168.6,48.3z"/>
	</g>
	<g id="XMLID_28_">
		<line id="XMLID_34_" class="st0" x1="88.4" y1="58" x2="168.6" y2="58"/>
		<path id="XMLID_33_" class="st0" d="M168.6,198v9.7c0,2.5-2.1,4.6-4.6,4.6H92.9c-2.5,0-4.6-2.1-4.6-4.6V198V58v-9.7
			c0-2.5,2.1-4.6,4.6-4.6h71.1c2.5,0,4.6,2.1,4.6,4.6V58V198z"/>
		<line id="XMLID_31_" class="st0" x1="88.4" y1="198" x2="168.6" y2="198"/>
	</g>
</g>
</svg>
